# xmcd
#
# Track frame offsets: 
#        183
#        42465
#        62048
#        80530
#        86038
#        98638
#        147408
#        161863
#        170460
#        189505
#        202083
#        219213
#        249670
#
# Disc length: 3605 seconds
#
# Revision: 5
# Processed by: cddbd v1.5.2PL0 Copyright (c) Steve Scherf et al.
# Submitted via: ExactAudioCopy v1.0b3
#
DISCID=bb0e130d
DTITLE=Bach, Johann Sebastian - Orchestersuiten Nr. 3 and 4 u.a. (Hogwoo
DTITLE=d, Academy of Ancient Music)
DYEAR=1987
DGENRE=Orchesterwerk
TTITLE0=Orchestersuite Nr. 3 D-dur BWV 1068 - 1. Ouverture
TTITLE1=Orchestersuite Nr. 3 D-dur BWV 1068 - 2. Air
TTITLE2=Orchestersuite Nr. 3 D-dur BWV 1068 - 3. Gavotte I alternative
TTITLE2=ment - Gavotte II
TTITLE3=Orchestersuite Nr. 3 D-dur BWV 1068 - 4. Bourrée
TTITLE4=Orchestersuite Nr. 3 D-dur BWV 1068 - 5. Gigue
TTITLE5=Orchestersuite Nr. 4 D-dur BWV 1069 - 1. Ouverture
TTITLE6=Orchestersuite Nr. 4 D-dur BWV 1069 - 2. Bourrée I alternative
TTITLE6=ment - Bourrée II
TTITLE7=Orchestersuite Nr. 4 D-dur BWV 1069 - 3. Gavotte
TTITLE8=Orchestersuite Nr. 4 D-dur BWV 1069 - 4. Menuet I alternativem
TTITLE8=ent - Menuet II
TTITLE9=Orchestersuite Nr. 4 D-dur BWV 1069 - 5. Réjouissance
TTITLE10=Konzert für zwei Cembali c-moll BWV 1062 - 1. Allegro
TTITLE11=Konzert für zwei Cembali c-moll BWV 1062 - 2. Andante
TTITLE12=Konzert für zwei Cembali c-moll BWV 1062 - 3. Allegro assai
EXTD=
EXTT0=
EXTT1=
EXTT2=
EXTT3=
EXTT4=
EXTT5=
EXTT6=
EXTT7=
EXTT8=
EXTT9=
EXTT10=
EXTT11=
EXTT12=
PLAYORDER=
